<svg xmlns="http://www.w3.org/2000/svg" viewBox="0 0 1200 630" width="1200" height="630">
  <defs>
    <linearGradient id="bg" x1="0" y1="0" x2="1" y2="1">
      <stop offset="0%" stop-color="#FFF8FB"/>
      <stop offset="100%" stop-color="#FFE4EC"/>
    </linearGradient>
    <linearGradient id="pink" x1="0" y1="0" x2="1" y2="1">
      <stop offset="0%" stop-color="#E91E63"/>
      <stop offset="100%" stop-color="#AD1457"/>
    </linearGradient>
  </defs>
  <rect width="1200" height="630" fill="url(#bg)"/>
  <circle cx="1100" cy="100" r="200" fill="#FFD6E4" opacity=".5"/>
  <circle cx="100" cy="550" r="180" fill="#FFE4EC" opacity=".7"/>

  <g transform="translate(500, 180)">
    <rect width="200" height="200" rx="50" fill="url(#pink)"/>
    <path d="M140 55a32 32 0 0 0-45 0l-3 3-3-3a32 32 0 0 0-45 45l3 3 45 45 45-45 3-3a32 32 0 0 0 0-45z" fill="#fff" fill-opacity=".95" transform="translate(25, 25)"/>
  </g>

  <text x="600" y="440" font-family="Playfair Display, Georgia, serif" font-size="80" font-weight="700" fill="#1E1E23" text-anchor="middle">Mini Beauty</text>
  <text x="600" y="495" font-family="Inter, -apple-system, sans-serif" font-size="28" font-weight="400" fill="#5A5A66" text-anchor="middle">Ankara İncek Güzellik Salonu</text>
  <text x="600" y="560" font-family="Inter, -apple-system, sans-serif" font-size="22" font-weight="300" fill="#AD1457" text-anchor="middle">Lazer Epilasyon • Cilt Bakımı • Kalıcı Makyaj</text>
</svg>
